<?xml version="1.0" encoding="UTF-8" standalone="no"?>
<!-- Created with Inkscape (http://www.inkscape.org/) -->

<svg
   xmlns:svg="http://www.w3.org/2000/svg"
   xmlns="http://www.w3.org/2000/svg"
   width="48"
   height="48"
   viewBox="0 0 48 48"
   id="svg2"
   version="1.1"
>

    <path
       style="fill:#ffee58;fill-opacity:1;stroke:none;stroke-width:3.543307066;stroke-miterlimit:4;stroke-dasharray:none;stroke-opacity:1"
       d="M2,14
L2,34
L4,34
L4,26
L6,26
L6,34
L8,34
L8,22
 L10,22 L10,34
  L12,34 L12,26 L14,26 L14,34 L16,34 L16,26 L18,26 L18,34 L20,34
  L20,26 L22,26 L22,34 L24,34

   L24,26
    L26,26
    L26,44
     L28,42 L28,42 L28,18 L30,18

  L30,40 L32,38 L32,26 L34,26 L34,36 L36,34 L36,26 L38,26 L38,32
  L40,30 L40,26 L42,26 L42,28 L46,24 L46,24 L24,2 L24,14 L2,14
Z"
       id="path4163-73"
	   />

</svg>
